<svg width="51" height="51" viewBox="0 0 51 51" fill="none" xmlns="http://www.w3.org/2000/svg">
<g clip-path="url(#clip0_6_953)">
<path d="M25.5 49.5C38.7548 49.5 49.5 38.7548 49.5 25.5C49.5 12.2452 38.7548 1.5 25.5 1.5C12.2452 1.5 1.5 12.2452 1.5 25.5C1.5 38.7548 12.2452 49.5 25.5 49.5Z" stroke="#B9BCFF" stroke-width="3"/>
<path d="M26 16C27.6569 16 29 14.6569 29 13C29 11.3431 27.6569 10 26 10C24.3431 10 23 11.3431 23 13C23 14.6569 24.3431 16 26 16Z" fill="#B9BCFF"/>
<path d="M29 23C29 21.3431 27.6569 20 26 20C24.3431 20 23 21.3431 23 23L23 37C23 38.6569 24.3431 40 26 40C27.6569 40 29 38.6569 29 37L29 23Z" fill="#B9BCFF"/>
</g>
<defs>
<clipPath id="clip0_6_953">
<rect width="51" height="51" fill="white" transform="translate(51 51) rotate(-180)"/>
</clipPath>
</defs>
</svg>
